<?xml version="1.0" encoding="UTF-8"?>
<!-- Created with Inkscape (http://www.inkscape.org/) -->
<svg width="210mm" height="297mm" version="1.1" viewBox="0 0 210 297" xmlns="http://www.w3.org/2000/svg" xmlns:cc="http://creativecommons.org/ns#" xmlns:dc="http://purl.org/dc/elements/1.1/" xmlns:rdf="http://www.w3.org/1999/02/22-rdf-syntax-ns#">
 <metadata>
  <rdf:RDF>
   <cc:Work rdf:about="">
    <dc:format>image/svg+xml</dc:format>
    <dc:type rdf:resource="http://purl.org/dc/dcmitype/StillImage"/>
    <dc:title/>
   </cc:Work>
  </rdf:RDF>
 </metadata>
 <g>
  <rect id="redRect" x="65.748" y="79.443" width="41.694" height="38.754" fill="#a00" style="paint-order:fill markers stroke"/>
  <g stroke-miterlimit="3">
   <circle id="yellowCirc" cx="93.544" cy="65.545" r="22.451" fill="#ff0" stroke="#ff0" stroke-width="2" style="paint-order:fill markers stroke"/>
   <path id="greenStar" transform="matrix(-.4116 0 0 -.312 164.03 177)" d="m139.51 136.37-15.717 0.23593-8.7161 13.081-5.0813-14.875-15.135-4.2471 12.577-9.4293-0.63757-15.706 12.854 9.0476 14.74-5.4599-4.6326 15.021z" fill="#008000" stroke="#1a1a1a" stroke-width="5.5811" style="paint-order:fill markers stroke"/>
   <rect id="greyRect" x="134.4" y="95.582" width="39.021" height="52.457" fill="#b3b3b3" stroke="#000" stroke-width="1.1595" style="paint-order:fill markers stroke"/>
   <ellipse id="orangeEllip" cx="161.43" cy="82.383" rx="28.331" ry="8.8199" fill="#f60" stroke="#d45500" style="paint-order:fill markers stroke"/>
  </g>
  <path id="turqStar" d="m155.79 63.733-15.916 7.8549-2.5522 17.564-12.389-12.709-17.493 3.0003 8.2591-15.71-8.2591-15.71 17.493 3.0003 12.389-12.709 2.5522 17.564z" fill="#0ff" style="paint-order:fill markers stroke"/>
  <ellipse id="blackCirc" cx="163.44" cy="41.557" rx="13.497" ry="12.628" stroke="#ff0" stroke-miterlimit="3" stroke-width="2" style="paint-order:fill markers stroke"/>
  <path id="blackStar" d="m74.301 125.95 0.81357 11.474 9.9131 5.8345-10.661 4.3194-2.4856 11.231-7.4023-8.8043-11.449 1.1066 6.086-9.7607-4.5904-10.547 11.164 2.7719z" stroke="#999" stroke-miterlimit="3" stroke-width="2" style="paint-order:fill markers stroke"/>
 </g>
 <path id="greenSpir" d="m117.33 98.419c1.2998 0.48242-9e-3 1.9902-0.80181 2.1604-2.1485 0.46138-3.6075-1.8925-3.519-3.764 0.15817-3.3478 3.6464-5.3314 6.7263-4.8777 4.5198 0.66588 7.091 5.4186 6.2363 9.6885-1.1391 5.6912-7.1964 8.8647-12.651 7.5949-6.8637-1.5979-10.646-8.9768-8.9535-15.613 2.0494-8.0373 10.759-12.431 18.575-10.312 9.2116 2.4967 14.218 12.541 11.671 21.537-2.9413 10.386-14.325 16.008-24.5 13.029-11.562-3.3842-17.798-16.108-14.388-27.462 3.8259-12.737 17.892-19.59 30.424-15.747 13.913 4.2667 21.382 19.676 17.105 33.386" fill="none" stroke="#8a0" stroke-width="4"/>
 <path id="purpleCurve" d="m171.45 66.079c11.359 59.601-45.703 60.269-45.703 60.269" color="#000000" color-rendering="auto" fill="none" image-rendering="auto" shape-rendering="auto" solid-color="#000000" stroke="#f0f" stroke-width="3" style="isolation:auto;mix-blend-mode:normal"/>
</svg>
